<svg width="259" height="259" viewBox="0 0 259 259" fill="none" xmlns="http://www.w3.org/2000/svg">
<circle cx="129.5" cy="129.5" r="129" fill="white" stroke="#F1F1F1"/>
<path d="M123.443 53.6577C127.296 51.4524 132.314 51.4425 136.163 53.6577C155.529 64.6004 174.901 75.526 194.263 86.4753C197.905 88.5267 200.341 92.5797 200.304 96.7761V162.612C200.331 166.982 197.655 171.132 193.812 173.137C174.51 184.019 155.218 194.915 135.919 205.797C131.987 208.045 126.868 207.872 123.058 205.44C117.272 202.085 111.475 198.747 105.687 195.396C104.505 194.691 103.172 194.129 102.337 192.983C103.075 191.988 104.395 191.864 105.467 191.429C107.883 190.661 110.101 189.428 112.32 188.232C112.882 187.848 113.567 187.995 114.105 188.339C119.053 191.176 123.958 194.096 128.923 196.906C129.982 197.517 131.054 196.705 131.96 196.201C150.901 185.495 169.866 174.831 188.804 164.122C189.505 163.784 189.893 163.039 189.836 162.271C189.85 140.553 189.84 118.831 189.843 97.1137C189.923 96.2415 189.419 95.4397 188.63 95.0827C169.395 84.2501 150.169 73.4009 130.938 62.5656C130.604 62.3365 130.21 62.2136 129.805 62.213C129.401 62.2124 129.006 62.3342 128.672 62.5623C109.44 73.4009 90.218 84.2601 70.9861 95.0921C70.2003 95.4496 69.6729 96.2382 69.7664 97.1137C69.7698 118.831 69.7664 140.553 69.7664 162.274C69.7331 162.649 69.8155 163.025 70.0025 163.352C70.1895 163.679 70.4721 163.941 70.8123 164.102C75.9445 167.012 81.0832 169.902 86.2187 172.802C89.1118 174.36 92.664 175.285 95.8515 174.092C98.6644 173.083 100.636 170.212 100.582 167.226C100.609 145.635 100.569 124.04 100.602 102.453C100.532 101.494 101.441 100.702 102.373 100.793C104.839 100.776 107.308 100.759 109.774 100.799C110.804 100.776 111.512 101.808 111.385 102.774C111.375 124.501 111.411 146.23 111.368 167.957C111.375 173.748 108.996 180.049 103.639 182.882C97.0408 186.301 88.8849 185.576 82.366 182.298C76.7225 179.481 71.3369 176.157 65.7937 173.139C61.9415 171.145 59.278 166.979 59.3052 162.612V96.7761C59.2648 92.4929 61.7976 88.3662 65.5529 86.3447C84.8518 75.4535 104.147 64.5539 123.443 53.6577Z" fill="#8CC84B"/>
<path d="M140.278 99.2615C148.695 98.7197 157.706 98.9405 165.28 103.087C171.144 106.265 174.396 112.934 174.499 119.449C174.335 120.327 173.417 120.812 172.578 120.752C170.136 120.748 167.693 120.785 165.251 120.735C164.215 120.775 163.613 119.82 163.483 118.904C162.781 115.787 161.081 112.699 158.147 111.196C153.643 108.941 148.421 109.054 143.509 109.101C139.924 109.292 136.068 109.602 133.031 111.711C130.699 113.308 129.99 116.532 130.823 119.128C131.607 120.993 133.76 121.594 135.521 122.149C145.664 124.801 156.413 124.538 166.363 128.029C170.483 129.452 174.512 132.219 175.922 136.532C177.767 142.313 176.958 149.223 172.845 153.863C169.51 157.682 164.653 159.761 159.808 160.89C153.362 162.327 146.674 162.363 140.128 161.725C133.973 161.024 127.568 159.407 122.817 155.213C118.754 151.685 116.769 146.188 116.966 140.883C117.014 139.987 117.906 139.362 118.764 139.436C121.223 139.416 123.682 139.409 126.142 139.439C127.124 139.369 127.852 140.218 127.903 141.144C128.356 144.114 129.473 147.231 132.062 148.992C137.061 152.216 143.332 151.996 149.055 152.086C153.797 151.875 159.119 151.812 162.989 148.678C165.03 146.891 165.635 143.9 165.083 141.327C164.485 139.155 162.213 138.143 160.262 137.481C150.248 134.314 139.379 135.463 129.463 131.881C125.437 130.458 121.544 127.768 119.997 123.632C117.839 117.778 118.828 110.538 123.371 106.054C127.802 101.593 134.197 99.8757 140.278 99.2609V99.2615Z" fill="#8CC84B"/>
</svg>
